<?xml version="1.0" encoding="UTF-8"?><svg id="_レイヤー_2" xmlns="http://www.w3.org/2000/svg" width="50.573mm" height="42.848mm" viewBox="0 0 143.356 121.459"><defs><style>.cls-1{fill:#b15921;}.cls-2{fill:#006934;}.cls-3{fill:#b86d2c;}.cls-4{fill:#231815;}</style></defs><g id="_レイヤー_5"><g><ellipse class="cls-3" cx="108.004" cy="65.717" rx="55.868" ry="35.145" transform="translate(33.123 167.582) rotate(-85)"/><rect class="cls-2" x="69.466" width="8.845" height="34.213"/><ellipse class="cls-3" cx="35.352" cy="64.15" rx="35.145" ry="55.868" transform="translate(-5.456 3.325) rotate(-5)"/><ellipse class="cls-1" cx="71.726" cy="64.68" rx="43.914" ry="55.868"/><path class="cls-3" d="M97.042,64.679c0,30.855-15.63,55.868-25.316,55.868s-25.959-22.859-25.959-53.714S62.041,8.81,71.726,8.81s25.316,25.013,25.316,55.868Z"/><path class="cls-4" d="M113.486,64.679c-3.295,2.403-7.306,4.485-11.856,6.151l.996,5.647-5.952,1.049-.862-4.887c-5.511,1.455-11.591,2.351-18.014,2.543v5.128h-6.044v-5.158c-6.376-.248-12.409-1.184-17.861-2.676l-1.014,5.752-5.952-1.049,1.161-6.584c-4.295-1.624-8.101-3.615-11.245-5.903-.139,.859-.209,1.719-.209,2.602,0,9.276,8.04,17.358,19.913,21.556l.46-5.263,6.021,.527-.562,6.426c3.979,.888,8.251,1.377,12.704,1.377,4.056,0,7.963-.403,11.635-1.146l-.582-6.656,6.021-.527,.491,5.618c12.446-4.084,20.971-12.364,20.971-21.911,0-.883-.07-1.754-.221-2.613Z"/><polygon class="cls-4" points="73.889 58.902 70 65.636 77.777 65.636 73.889 58.902"/><circle class="cls-4" cx="41.753" cy="42.306" r="7.52"/><circle class="cls-4" cx="102.114" cy="43.189" r="7.52"/></g></g></svg>