<?xml version="1.0" encoding="UTF-8"?><svg id="_レイヤー_2" xmlns="http://www.w3.org/2000/svg" width="47.852mm" height="43.418mm" viewBox="0 0 135.644 123.076"><defs><style>.cls-1{fill:#e8cb38;}.cls-2{fill:#00913a;}.cls-3{fill:#231815;}</style></defs><g id="_レイヤー_5"><g><path class="cls-1" d="M135.2,69.765c-3.036,30.8-20.922,54.574-39.938,53.099-4.536-.35-8.728-2.101-12.436-4.988-4.433,3.333-9.366,5.201-14.575,5.201-5.381,0-10.478-1.995-15.014-5.54-3.812,3.089-8.141,4.967-12.85,5.328C21.372,124.339,3.486,100.565,.441,69.765-2.594,38.965,10.35,12.792,29.366,11.328c7.261-.562,14.35,2.547,20.517,8.342,5.321-5.423,11.617-8.554,18.369-8.554,6.58,0,12.729,2.972,17.955,8.14,6.063-5.519,12.988-8.48,20.068-7.928,19.016,1.465,31.969,27.637,28.925,58.437Z"/><path class="cls-3" d="M94.273,58.179c-2.447,1.573-5.425,2.937-8.804,4.027l.739,3.697-4.42,.687-.64-3.2c-4.092,.953-8.607,1.539-13.376,1.665v3.358h-4.488v-3.377c-4.734-.163-9.214-.775-13.262-1.752l-.753,3.766-4.42-.687,.862-4.311c-3.19-1.063-6.016-2.367-8.35-3.865-.103,.563-.155,1.125-.155,1.703,0,6.074,5.97,11.365,14.786,14.114l.342-3.446,4.471,.345-.417,4.207c2.954,.581,6.127,.901,9.433,.901,3.011,0,5.913-.264,8.64-.751l-.432-4.358,4.471-.345,.365,3.678c9.242-2.674,15.572-8.095,15.572-14.346,0-.578-.052-1.148-.164-1.711Z"/><polygon class="cls-3" points="66.049 49.438 63.162 53.847 68.936 53.847 66.049 49.438"/><ellipse class="cls-3" cx="42.187" cy="38.572" rx="5.584" ry="4.924"/><ellipse class="cls-3" cx="87.008" cy="39.149" rx="5.584" ry="4.924"/><ellipse class="cls-2" cx="66.685" cy="17.407" rx="10.411" ry="4.07"/><rect class="cls-2" x="62.298" y="0" width="8.346" height="16.457" rx="2.439" ry="2.439"/></g></g></svg>