<?xml version="1.0" encoding="UTF-8"?><svg id="_レイヤー_2" xmlns="http://www.w3.org/2000/svg" width="57.244mm" height="61.897mm" viewBox="0 0 162.267 175.456"><defs><style>.cls-1{fill:#3e3a39;}.cls-2{fill:#b86d2c;}.cls-3{fill:#efefef;}.cls-4{fill:none;stroke:#efefef;stroke-miterlimit:10;stroke-width:.84px;}</style></defs><g id="_レイヤー_5"><g><path class="cls-1" d="M102.382,85.777c0,30.839-21.048,54.124-45.458,54.124S13.987,116.616,13.987,85.777s19.36-39.614,43.77-39.614,44.626,8.775,44.626,39.614Z"/><path class="cls-1" d="M80.445,56.65H35.924c-7.691,0-13.926-4.327-13.926-9.664L32.634,0l13.829,10.064h23.121L81.801,0l12.569,46.986c0,5.337-6.235,9.664-13.926,9.664Z"/><g><path class="cls-3" d="M55.217,33.254s-4.565,8.973-10.196,8.973-10.196-8.973-10.196-8.973c0,0,4.565-8.973,10.196-8.973s10.196,8.973,10.196,8.973Z"/><path class="cls-1" d="M48.593,33.254c0,5.799-3.573,8.361-3.573,8.361,0,0-3.573-3.194-3.573-8.361s3.573-8.361,3.573-8.361c0,0,3.573,2.561,3.573,8.361Z"/></g><g><path class="cls-3" d="M83.207,33.254s-4.565,8.973-10.196,8.973-10.196-8.973-10.196-8.973c0,0,4.565-8.973,10.196-8.973s10.196,8.973,10.196,8.973Z"/><path class="cls-1" d="M76.583,33.254c0,5.799-3.573,8.361-3.573,8.361,0,0-3.573-3.194-3.573-8.361s3.573-8.361,3.573-8.361c0,0,3.573,2.561,3.573,8.361Z"/></g><path class="cls-3" d="M63.311,41.615s-1.847,2.733-4.125,2.733-4.125-2.733-4.125-2.733c0,0,1.847-2.733,4.125-2.733s4.125,2.733,4.125,2.733Z"/><path class="cls-4" d="M24.659,70.768c5.751,0,5.751,6.715,11.503,6.715s5.753-6.715,11.506-6.715,5.755,6.715,11.51,6.715,5.753-6.715,11.506-6.715,5.757,6.715,11.514,6.715,5.757-6.715,11.514-6.715"/><path class="cls-4" d="M30.921,91.052c4.708,0,4.708,6.715,9.417,6.715s4.71-6.715,9.419-6.715,4.711,6.715,9.423,6.715,4.71-6.715,9.42-6.715,4.713,6.715,9.426,6.715,4.713-6.715,9.426-6.715"/><path class="cls-4" d="M35.658,108.581c3.919,0,3.919,6.715,7.839,6.715s3.92-6.715,7.841-6.715,3.922,6.715,7.844,6.715,3.921-6.715,7.841-6.715,3.923,6.715,7.846,6.715,3.923-6.715,7.846-6.715"/><path class="cls-2" d="M162.267,156.031c-3.451,1.968-36.441-7.656-54.303-13.09,20.175,4.566,50.213,2.853,50.213,2.853l1.252-4.112c-7.982,7.531-48.383-1.007-58.805-3.367,2.321-1.931,6.256-5.012,10.526-8.302,30.543,4.144,28.747-2.107,28.747-2.107v-1.624c-2.864,4.677-20.106,3.164-26.965,2.361,8.444-6.482,17.449-13.237,17.449-13.237l-3.506-3.386c.667,3.713-25.274,22.651-29.137,25.589-8.09,.406-79.711,3.803-97.739-2.139v9.975s62.853-8.925,98.495-2.012c35.642,6.912,8.597,28.962,8.597,28.962l1.502,.525s24.137-19.903-2.139-28.342l24.342,6.379c3.589,24.937,11.352,24.5,11.352,24.5v-1.662c-8.597-.875-9.599-22.487-9.599-22.487,5.235,2.656,29.215,6.65,29.215,6.65l.501-1.925Z"/></g></g></svg>