<?xml version="1.0" encoding="UTF-8"?><svg id="_レイヤー_2" xmlns="http://www.w3.org/2000/svg" width="30.765mm" height="50.438mm" viewBox="0 0 87.207 142.974"><defs><style>.cls-1{fill:#c9caca;}.cls-2{fill:#dcdddd;}.cls-3{fill:#9e2137;}.cls-4{fill:none;stroke:#c9caca;stroke-miterlimit:10;stroke-width:3.108px;}.cls-5{fill:#898989;}.cls-6{fill:#efefef;}.cls-7{fill:#73172b;}.cls-8{fill:#9fa0a0;}</style></defs><g id="_レイヤー_5"><g><rect class="cls-2" x="5.803" y="114.214" width="63.717" height="28.76" rx="9.711" ry="9.711"/><ellipse class="cls-1" cx="37.661" cy="120.625" rx="37.661" ry="11.28"/><ellipse class="cls-8" cx="37.661" cy="119.47" rx="28.97" ry="8.677"/><path class="cls-6" d="M47.831,47.371H24.731c-1.748,0-3.165,1.284-3.165,2.868V122.738s0,0,0,0v3.935c4.537,1.21,9.939,1.92,15.753,1.92,4.948,0,9.603-.512,13.677-1.409v-4.447s0-16.055,0-16.055V50.239c0-1.584-1.417-2.868-3.165-2.868Z"/><path class="cls-5" d="M21.586,45.459c-.862,0-1.56,.986-1.56,2.202v9.451c0,.912,1.573,.801,1.882,0,1.016-2.635,1.443-4.07,3.65-4.07,1.754,0,3.317,1.152,4.331,2.949,.611,1.083,1.793,1.083,2.404,0,1.014-1.797,2.577-2.949,4.331-2.949s3.317,1.152,4.331,2.949c.611,1.083,1.793,1.083,2.404,0,1.014-1.797,2.577-2.949,4.331-2.949,2.444,0,2.573,.763,3.65,4.07,.187,.575,1.882,.633,1.882,0v-9.451c0-1.216-.699-2.202-1.56-2.202H21.586Z"/><ellipse class="cls-4" cx="77.586" cy="113.487" rx="8.066" ry="7.308"/><path class="cls-3" d="M49.916,24.996c0,11.833-6.105,17.854-13.635,17.854s-13.635-6.022-13.635-17.854S36.281,0,36.281,0c0,0,13.635,13.163,13.635,24.996Z"/><path class="cls-7" d="M45.061,35.362c0,5.916-3.778,7.488-8.437,7.488s-8.437-1.572-8.437-7.488,8.437-13.937,8.437-13.937c0,0,8.437,8.02,8.437,13.937Z"/></g></g></svg>