<?xml version="1.0" encoding="UTF-8"?><svg id="_レイヤー_2" xmlns="http://www.w3.org/2000/svg" width="50.769mm" height="51.207mm" viewBox="0 0 143.913 145.154"><defs><style>.cls-1{fill:#f7f8f8;}.cls-2{fill:#efefef;}.cls-3{fill:#231815;}</style></defs><g id="_レイヤー_5"><g><ellipse class="cls-2" cx="71.957" cy="54.433" rx="53.453" ry="72.667" transform="translate(3.787 113.539) rotate(-78.033)"/><rect class="cls-2" x="28.1" y="72.091" width="65.287" height="70.491" rx="18.475" ry="18.475" transform="translate(23.576 -10.262) rotate(11.967)"/><path class="cls-1" d="M63.976,121.643c-2.317,10.93-6.102,11.977-10.309,11.086-4.207-.892-7.242-3.385-4.926-14.315s9.108-26.157,13.315-25.265c4.207,.892,4.237,17.564,1.92,28.494Z"/><path class="cls-1" d="M78.377,123.688c-.367,10.024-3.021,11.593-6.22,11.526s-5.734-1.747-5.366-11.771,3.497-24.598,6.697-24.531c3.2,.068,5.257,14.752,4.89,24.776Z"/><path class="cls-1" d="M35.89,114.683c-3.731,9.312-1.942,11.822,1.01,13.058s5.949,.73,9.68-8.582c3.731-9.312,6.782-23.902,3.831-25.138-2.952-1.236-10.79,11.35-14.52,20.662Z"/><ellipse class="cls-3" cx="49.324" cy="48.446" rx="21.63" ry="16.807" transform="translate(-14.966 73.876) rotate(-66.066)"/><ellipse class="cls-3" cx="88.488" cy="62.494" rx="13.049" ry="15.239" transform="translate(-19.005 75.94) rotate(-42.361)"/><path class="cls-3" d="M70.131,85.71c-1.481,6.986-2.319-5.182-6.354-6.037s-9.738,9.926-8.257,2.94,5.952-11.956,9.987-11.101,6.105,7.212,4.625,14.198Z"/></g></g></svg>