<?xml version="1.0" encoding="UTF-8"?><svg id="_レイヤー_2" xmlns="http://www.w3.org/2000/svg" width="55.487mm" height="42.849mm" viewBox="0 0 157.286 121.462"><defs><style>.cls-1{fill:#b15921;}.cls-2{fill:none;stroke:#006934;stroke-linecap:round;stroke-linejoin:round;stroke-width:2.835px;}.cls-3{fill:#b86d2c;}.cls-4{fill:#231815;}</style></defs><g id="_レイヤー_5"><g><path class="cls-2" d="M80.873,17.359s1.541-16.303,8.986-13.235c7.445,3.067,2.034,8.822,2.034,8.822,0,0-19.893,.346-12.199-11.528"/><path class="cls-3" d="M156.772,71.232c-3.52,29.02-24.26,51.42-46.31,50.03-5.26-.33-10.12-1.98-14.42-4.7-5.14,3.14-10.86,4.9-16.9,4.9-6.24,0-12.15-1.88-17.41-5.22-4.42,2.91-9.44,4.68-14.9,5.02C24.782,122.652,4.042,100.252,.512,71.232-3.008,42.212,12.002,17.552,34.052,16.172c8.42-.53,16.64,2.4,23.79,7.86,6.17-5.11,13.47-8.06,21.3-8.06,7.63,0,14.76,2.8,20.82,7.67,7.03-5.2,15.06-7.99,23.27-7.47,22.05,1.38,37.07,26.04,33.54,55.06Z"/><ellipse class="cls-1" cx="79.134" cy="68.717" rx="40.144" ry="52.745"/><ellipse class="cls-3" cx="79.134" cy="68.717" rx="27.948" ry="52.745"/><path class="cls-4" d="M111.633,79.693c-2.837,2.069-6.29,3.862-10.208,5.296l.857,4.862-5.125,.904-.742-4.208c-4.745,1.253-9.98,2.024-15.51,2.189v4.415h-5.204v-4.441c-5.49-.214-10.684-1.02-15.379-2.304l-.873,4.953-5.125-.904,1-5.669c-3.698-1.398-6.975-3.113-9.682-5.083-.12,.74-.18,1.48-.18,2.24,0,7.987,6.922,14.945,17.145,18.56l.396-4.531,5.184,.453-.484,5.533c3.426,.765,7.104,1.185,10.938,1.185,3.492,0,6.857-.347,10.018-.987l-.501-5.731,5.184-.453,.423,4.837c10.716-3.517,18.056-10.645,18.056-18.865,0-.76-.06-1.51-.19-2.25Z"/><path class="cls-4" d="M102.882,61.004l9.823-8.404-4.94,1.268c-3.061,.786-6.705,.786-9.766,0l-4.94-1.268,9.823,8.404Z"/><path class="cls-4" d="M56.539,61.004l9.823-8.404-4.94,1.268c-3.061,.786-6.705,.786-9.766,0l-4.94-1.268,9.823,8.404Z"/><polygon class="cls-4" points="78.643 68.716 75.295 74.515 81.991 74.515 78.643 68.716"/></g></g></svg>