<?xml version="1.0" encoding="UTF-8"?><svg id="_レイヤー_2" xmlns="http://www.w3.org/2000/svg" width="57.386mm" height="55.561mm" viewBox="0 0 162.669 157.496"><defs><style>.cls-1{fill:#f7f8f8;}.cls-2{fill:#3e3a39;}.cls-3{fill:#898989;}</style></defs><g id="_レイヤー_5"><g><g><path class="cls-3" d="M113.992,72.21C113.992,32.329,98.51,0,79.411,0S44.83,32.329,44.83,72.21c0,3.719,.135,7.371,.395,10.939l2.882,65.621h62.609l2.882-65.62c.26-3.568,.395-7.22,.395-10.939Z"/><path class="cls-2" d="M110.848,79.17c0-36.255-14.075-65.645-31.437-65.645s-31.437,29.39-31.437,65.645c0,3.381,.123,6.701,.359,9.944v59.655h62.156v-59.655c.236-3.243,.359-6.564,.359-9.945Z"/><polygon class="cls-1" points="97.88 63.976 83.496 63.976 83.496 36.916 75.327 36.916 75.327 63.976 60.942 63.976 60.942 74.247 75.327 74.247 75.327 125.378 83.496 125.378 83.496 74.247 97.88 74.247 97.88 63.976"/></g><g><path class="cls-3" d="M47.025,104.338c-4.943-26.129-19.094-44.277-31.608-40.534C2.904,67.547-3.233,91.763,1.71,117.892c.461,2.437,1.002,4.803,1.615,7.09l9.061,31.559,41.981-1.4-6.246-43.559c-.272-2.388-.636-4.808-1.097-7.245Z"/><path class="cls-2" d="M45.828,109.514c-4.494-23.754-17.359-40.252-28.734-36.849S.139,98.082,4.633,121.836c.419,2.215,.911,4.367,1.468,6.445l6.434,28.215,41.685-1.311-7.394-39.085c-.247-2.171-.578-4.371-.997-6.586Z"/><polygon class="cls-1" points="35.448 102.101 26.023 104.92 22.669 87.19 17.317 88.791 20.671 106.521 11.246 109.34 12.519 116.07 21.944 113.25 28.282 146.751 33.634 145.15 27.296 111.65 36.721 108.83 35.448 102.101"/></g><g><path class="cls-3" d="M115.644,105.293c4.943-26.129,19.094-44.277,31.608-40.534,12.513,3.743,18.65,27.959,13.707,54.088-.461,2.437-1.002,4.803-1.615,7.09l-9.061,31.559-41.981-1.4,6.246-43.559c.272-2.388,.636-4.808,1.097-7.245Z"/><path class="cls-2" d="M116.841,110.469c4.494-23.754,17.359-40.252,28.734-36.849,11.376,3.403,16.954,25.417,12.461,49.171-.419,2.215-.911,4.367-1.468,6.445l-6.434,28.215-41.685-1.311,7.394-39.085c.247-2.171,.578-4.371,.997-6.586Z"/><polygon class="cls-1" points="127.221 103.056 136.646 105.875 140 88.145 145.352 89.746 141.998 107.476 151.423 110.295 150.15 117.025 140.725 114.205 134.387 147.706 129.035 146.105 135.373 112.605 125.948 109.785 127.221 103.056"/></g></g></g></svg>