<?xml version="1.0" encoding="UTF-8"?><svg id="_レイヤー_2" xmlns="http://www.w3.org/2000/svg" width="54.826mm" height="54.019mm" viewBox="0 0 155.413 153.125"><defs><style>.cls-1{fill:#e8cb38;}.cls-2{fill:#3e3a39;}.cls-3{fill:#b5b5b6;}</style></defs><g id="_レイヤー_5"><g><path class="cls-3" d="M93.163,125.228l11.701-30.624h-23.403c7.035,13.028,11.701,11.9,11.701,30.624Z"/><path class="cls-3" d="M64.133,125.228l-11.701-30.624h23.403c-7.035,13.028-11.701,11.9-11.701,30.624Z"/><path class="cls-2" d="M154.069,26.945c-1.471,.991-2.109,2.539-2.707,2.834-.968,.477-1.654,1.381-1.859,2.44l-7.775,33.074c-1.077,8.511-5.628,6.778-9.889,5.598l-9.797-2.713c.065-1.076,.108-2.161,.108-3.263,0-2.174-.153-4.236-.427-6.204l7.513,1.038c3.874,.535,7.493-2.107,8.044-5.871l8.553-39.493c.141-.651-.604-1.139-1.172-.767-1.303,.853-1.868,2.186-2.398,2.44-.857,.41-1.465,1.189-1.647,2.101l-6.886,28.468c-.954,7.326-4.985,5.834-8.758,4.818l-5.572-1.5c-1.589-3.852-3.829-7.158-6.591-9.954,6.449-4.573,10.38-10.63,10.38-17.276C123.19,12.907,114.641,4.383,102.054,.021c-.383-.133-.642,.391-.308,.619,6.111,4.184,16.388,10.453,16.388,17.904,0,6.505-4.556,12.345-11.784,16.361-7.65-4.661-17.503-6.856-28.26-6.856-10.585,0-20.297,2.124-27.894,6.633-6.996-4.008-11.379-9.755-11.379-16.138,0-7.45,10.278-13.72,16.388-17.904,.334-.229,.075-.752-.308-.619-12.587,4.362-21.136,12.885-21.136,22.694,0,6.49,3.748,12.42,9.93,16.954-2.749,2.705-4.992,5.907-6.624,9.626l-7.985,2.149c-3.773,1.016-7.804,2.508-8.758-4.818l-6.886-28.468c-.182-.911-.79-1.69-1.647-2.101-.53-.254-1.095-1.587-2.398-2.44-.568-.372-1.314,.115-1.172,.767l8.553,39.493c.551,3.764,4.17,6.407,8.044,5.871l9.677-1.337c-.302,2.057-.465,4.22-.465,6.503,0,1.022,.046,2.037,.116,3.047l-10.575,2.929c-4.26,1.18-8.811,2.913-9.889-5.598L5.91,32.219c-.205-1.059-.892-1.964-1.859-2.44-.598-.295-1.236-1.843-2.707-2.834-.642-.432-1.483,.134-1.324,.891l9.657,45.883c.622,4.373,4.709,7.443,9.082,6.821l17.263-2.454c.75,2.462,1.701,4.854,2.824,7.163-15.404,7.1-25.56,19.223-25.56,32.99,0,15.064,12.147,28.155,30.031,34.854,.544,.204,.913-.6,.438-.951-8.682-6.426-23.285-16.055-23.285-27.497,0-12.437,10.027-23.295,24.934-29.129,5.705,7.06,13.1,12.72,21.12,16.208,4.233,1.841,18.15,1.946,23.136,0,8.394-3.277,15.69-8.447,21.231-15.095,13.429,6.041,22.275,16.333,22.275,28.016,0,11.442-14.603,21.071-23.286,27.497-.475,.351-.106,1.155,.438,.951,17.884-6.699,30.031-19.79,30.031-34.854,0-12.982-9.031-24.502-22.977-31.728,1.251-2.624,2.277-5.387,3.052-8.279l16.23,2.307c4.374,.622,8.461-2.448,9.082-6.821l9.657-45.883c.159-.757-.682-1.323-1.324-.891Z"/><circle class="cls-1" cx="64.133" cy="88.61" r="5.994"/><circle class="cls-1" cx="88.484" cy="88.61" r="9.393"/></g></g></svg>