<?xml version="1.0" encoding="UTF-8"?><svg id="_レイヤー_2" xmlns="http://www.w3.org/2000/svg" width="67.046mm" height="67.046mm" viewBox="0 0 190.051 190.051"><defs><style>.cls-1{fill:#312b5f;}.cls-2{fill:#006934;}.cls-3{fill:#b86d2c;}.cls-4{fill:none;}.cls-5{fill:#652f8e;}.cls-6{fill:#231815;}</style></defs><g id="_レイヤー_4"><rect id="_スライス_" class="cls-4" width="190.051" height="190.051"/></g><g id="_レイヤー_5"><g><rect class="cls-2" x="84.818" y="42.327" width="9.677" height="27.65"/><path class="cls-3" d="M167.786,109.604c-3.52,29.02-24.26,51.42-46.31,50.03-5.26-.33-10.12-1.98-14.42-4.7-5.14,3.14-10.86,4.9-16.9,4.9-6.24,0-12.15-1.88-17.41-5.22-4.42,2.91-9.44,4.68-14.9,5.02-22.05,1.39-42.79-21.01-46.32-50.03-3.52-29.02,11.49-53.68,33.54-55.06,8.42-.53,16.64,2.4,23.79,7.86,6.17-5.11,13.47-8.06,21.3-8.06,7.63,0,14.76,2.8,20.82,7.67,7.03-5.2,15.06-7.99,23.27-7.47,22.05,1.38,37.07,26.04,33.54,55.06Z"/><path class="cls-6" d="M122.647,118.065c-2.837,2.069-6.29,3.862-10.208,5.296l.857,4.862-5.125,.904-.742-4.208c-4.745,1.253-9.98,2.024-15.51,2.189v4.415h-5.204v-4.441c-5.49-.214-10.684-1.02-15.379-2.304l-.873,4.953-5.125-.904,1-5.669c-3.698-1.398-6.975-3.113-9.682-5.083-.12,.74-.18,1.48-.18,2.24,0,7.987,6.922,14.945,17.145,18.56l.396-4.531,5.184,.453-.484,5.533c3.426,.765,7.104,1.185,10.938,1.185,3.492,0,6.857-.347,10.018-.987l-.501-5.731,5.184-.453,.423,4.837c10.716-3.517,18.056-10.645,18.056-18.865,0-.76-.06-1.51-.19-2.25Z"/><path class="cls-6" d="M63.931,84.063l-9.823,17.014,4.94-2.567c3.061-1.591,6.705-1.591,9.766,0l4.94,2.567-9.823-17.014Z"/><path class="cls-6" d="M113.895,84.063l-9.823,17.014,4.94-2.567c3.061-1.591,6.705-1.591,9.766,0l4.94,2.567-9.823-17.014Z"/><polygon class="cls-6" points="89.657 107.089 86.309 112.887 93.005 112.887 89.657 107.089"/><g><path class="cls-1" d="M174.933,88.226c-2.18,5.073-22.941,3.114-45.941-6.768-23.001-9.883-39.532-23.947-37.352-29.02s22.164-.176,45.165,9.707c23.001,9.883,40.309,21.009,38.129,26.082Z"/><ellipse class="cls-6" cx="133.287" cy="70.332" rx="9.998" ry="45.328" transform="translate(16.049 165.028) rotate(-66.748)"/><path class="cls-6" d="M163.443,80.098c-.51-.11-1.079-.253-1.698-.428-2.04-.566-4.671-1.459-7.676-2.586-12.065-4.508-46.051-20.454-47.185-21.151-.269-.161-.468-.292-.583-.387-.023-1.435,.297-2.923,.901-4.435,.052-.142,.112-.281,.171-.42,.013-.031,.03-.059,.044-.089,7.395-17.164,49.46-37.937,49.46-37.937,1.537-1.303,3.796-1.31,5.341-.016l9.927,8.293c.846,.71,.331,2.079-.768,2.063l-6.365-.132c-2.578-.058-4.656,2.1-4.515,4.682,0,0,3.967,23.525,4.259,39.681,.083,4.1-.076,7.722-.599,10.365-.18,.973-.425,1.818-.716,2.496Z"/><path class="cls-5" d="M164.085,77.487c-6.893,3.998-20.848,1.231-32.636-3.834-11.885-5.107-23.018-13.644-24.726-21.448,1.185,.719,0,0,0,0,3.558,4.406,17.579,13.198,26.605,17.076,8.737,3.754,25.005,8.297,30.64,7.978-.049,.186,0,0,.118,.228Z"/></g></g></g></svg>