<?xml version="1.0" encoding="UTF-8"?><svg id="_レイヤー_2" xmlns="http://www.w3.org/2000/svg" width="46.202mm" height="55.876mm" viewBox="0 0 130.967 158.39"><defs><style>.cls-1{fill:#dcdddd;}.cls-2{fill:#8d5023;}.cls-3{fill:gray;}.cls-4{fill:#b86d2c;}.cls-5{fill:#231815;}</style></defs><g id="_レイヤー_5"><g><path class="cls-1" d="M126.99,125.002c-3.956,1.181-5.137,.278-11.862,2.159l-4.091,.025c-4.54-1.024-6.976-4.083-5.881-6.972,2.99-7.883,.945-16.616,1.656-25.771,4.139-53.275-26.916-63.947-51.906-63.947C24.582,30.496,0,59.126,0,94.443s24.582,63.947,54.906,63.947c1.698,0,51.59,0,75.411-29.413,1.76-2.173-.298-4.879-3.327-3.975Z"/><ellipse class="cls-5" cx="72.217" cy="61.028" rx="6.734" ry="5.398"/><ellipse class="cls-5" cx="37.099" cy="51.504" rx="11.271" ry="9.035"/><path class="cls-5" d="M58.364,72.19c-2.135,1.613-5.596,2.666-9.514,2.666s-7.379-1.053-9.514-2.666c-1.402,.75-2.238,1.669-2.238,2.666,0,2.515,5.261,4.555,11.751,4.555s11.751-2.039,11.751-4.555c0-.997-.836-1.916-2.238-2.666Z"/><g><path class="cls-2" d="M116.906,62.562c-2.929,3.753-25.185,.606-46.408-10.038-21.223-10.644-33.376-24.754-30.447-28.507s21.931,2.573,43.154,13.217c21.223,10.644,36.63,21.576,33.701,25.329Z"/><ellipse class="cls-5" cx="78.478" cy="43.29" rx="8.444" ry="43.024" transform="translate(5.01 94.625) rotate(-63.826)"/><path class="cls-5" d="M106.79,54.717c-.487-.149-1.027-.333-1.612-.547-1.93-.698-4.393-1.727-7.191-2.988-11.236-5.048-42.39-21.839-43.404-22.53-.241-.161-.418-.289-.517-.378,.196-1.139,.74-2.279,1.567-3.404,.073-.106,.153-.209,.233-.312,.018-.023,.039-.043,.057-.065C65.852,11.799,110.594,.489,110.594,.489c1.718-.844,3.952-.573,5.281,.641l8.545,7.785c.727,.666,.01,1.687-1.074,1.541l-6.27-.883c-2.539-.361-4.922,1.094-5.176,3.157,0,0,.33,19.123-1.847,31.958-.544,3.259-1.253,6.109-2.174,8.139-.327,.749-.697,1.388-1.089,1.89Z"/><path class="cls-4" d="M107.824,52.727c-7.422,2.324-20.791-1.576-31.668-7.031-10.966-5.5-20.666-13.626-21.163-20.017,1.061,.715,0,0,0,0,2.844,3.926,15.358,12.607,23.687,16.784,8.062,4.043,23.445,9.633,29.063,10.07-.077,.141,0,0,.081,.195Z"/></g><path class="cls-3" d="M90.144,108.181c-1.258,8.283-6.356,13.779-13.265,13.779-7.992,0-13.573-7.346-13.573-17.866,0-2.434,.276-4.822,.77-7.082l-1.884-.807c-.59,2.591-.907,5.273-.907,7.89,0,11.857,6.412,20.138,15.594,20.138,7.85,0,13.672-6.057,15.197-15.224l-1.932-.828Z"/><path class="cls-3" d="M7.203,97.406c1.258,8.283,6.356,13.779,13.265,13.779,7.992,0,13.573-7.346,13.573-17.866,0-2.434-.276-4.822-.77-7.082l1.884-.807c.59,2.591,.907,5.273,.907,7.89,0,11.857-6.412,20.138-15.594,20.138-7.85,0-13.672-6.057-15.197-15.224l1.932-.828Z"/></g></g></svg>