<?xml version="1.0" encoding="UTF-8"?><svg id="_レイヤー_2" xmlns="http://www.w3.org/2000/svg" width="62.134mm" height="62.134mm" viewBox="0 0 176.127 176.127"><defs><style>.cls-1{fill:none;stroke:#3e3a39;stroke-linecap:round;stroke-linejoin:round;stroke-width:2.953px;}</style></defs><g id="_レイヤー_5"><g><line class="cls-1" x1="174.651" y1="88.064" x2="1.476" y2="88.064"/><line class="cls-1" x1="88.064" y1="1.476" x2="88.064" y2="174.651"/><line class="cls-1" x1="149.29" y1="26.837" x2="26.837" y2="149.29"/><line class="cls-1" x1="26.837" y1="26.837" x2="149.29" y2="149.29"/><path class="cls-1" d="M88.064,57.747s-8.665,8.494-21.437,8.88c0,0,.676,15.651-8.88,21.437,0,0,9.711,8.527,8.88,21.437,0,0,13.544-2.784,21.437,8.88,0,0,7.651-14.034,21.437-8.88,0,0-5.014-14.297,8.88-21.437,0,0-10.848-5.08-8.88-21.437,0,0-16.158,2.907-21.437-8.88Z"/><path class="cls-1" d="M88.064,48.652s-11.264,11.042-27.868,11.543c0,0,.879,20.346-11.543,27.868,0,0,12.624,11.085,11.543,27.868,0,0,17.607-3.619,27.868,11.543,0,0,9.946-18.244,27.868-11.543,0,0-6.519-18.586,11.543-27.868,0,0-14.102-6.604-11.543-27.868,0,0-21.005,3.779-27.868-11.543Z"/><path class="cls-1" d="M88.064,36.828s-14.643,14.355-36.229,15.006c0,0,1.143,26.45-15.006,36.229,0,0,16.411,14.411,15.006,36.229,0,0,22.889-4.705,36.229,15.006,0,0,12.93-23.717,36.229-15.006,0,0-8.474-24.162,15.006-36.229,0,0-18.332-8.585-15.006-36.229,0,0-27.307,4.913-36.229-15.006Z"/><path class="cls-1" d="M88.064,21.458s-19.036,18.661-47.097,19.508c0,0,1.486,34.385-19.508,47.097,0,0,21.334,18.734,19.508,47.097,0,0,29.755-6.116,47.097,19.508,0,0,16.809-30.832,47.097-19.508,0,0-11.016-31.41,19.508-47.097,0,0-23.832-11.161-19.508-47.097,0,0-35.499,6.386-47.097-19.508Z"/></g></g></svg>