<?xml version="1.0" encoding="UTF-8"?><svg id="_レイヤー_2" xmlns="http://www.w3.org/2000/svg" width="65.131mm" height="37.382mm" viewBox="0 0 184.624 105.964"><defs><style>.cls-1{fill:#fff;}.cls-2{fill:#231815;}</style></defs><g id="_レイヤー_5"><g><path class="cls-2" d="M129.637,76.505c6.77-3.303,14.868-1.524,20.951,3.818-7.74-16.663-2.807-35.506,11.25-42.364,4.109-2.005,8.547-2.729,12.98-2.395-2.002-13.43,1.577-26.471,9.806-35.17-13.813,4.375-28.56,4.014-42.659-.394-.878,29.009-15.03,54.955-39.737,67.009-25.113,12.252-54.827,7.08-78.421-10.776-4.721,13.46-12.789,25.148-23.807,33.581,13.458-2.061,27.907,4.108,37.913,16.15,2.45-5.912,6.668-10.798,12.465-13.627,12.921-6.304,29.069-.288,38.098,13.424,.948-6.065,4.321-11.283,9.673-13.894,7.001-3.416,15.427-1.404,21.571,4.372l.085-.042c-.77-8.398,2.83-16.277,9.831-19.692Z"/><polygon class="cls-2" points="121.373 62.913 88.462 78.969 74.783 38.608 83.784 46.242 99.418 38.614 97.981 27.291 121.373 62.913"/><circle class="cls-1" cx="86.517" cy="52.305" r="1.915"/><circle class="cls-1" cx="97.973" cy="46.716" r="1.915"/><path class="cls-1" d="M96.694,57.925c-4.29,2.093-8.95,1.556-11.097-1.083,.088,.385,.209,.762,.385,1.124,1.7,3.484,6.959,4.415,11.746,2.079,4.787-2.336,7.291-7.054,5.591-10.537-.177-.362-.4-.69-.649-.996,.759,3.317-1.686,7.32-5.976,9.413Z"/></g></g></svg>